<?xml version="1.0" encoding="UTF-8"?><svg id="b" xmlns="http://www.w3.org/2000/svg" width="860.5221" height="1239.1913" viewBox="0 0 860.5221 1239.1913"><defs><style>.d{stroke-width:7.8191px;}.d,.e{fill:none;stroke:#fff;stroke-linecap:round;stroke-linejoin:round;}.e{stroke-width:7.9484px;}</style></defs><g id="c"><path class="d" d="m430.261,171.1233l-27.8191,270.1377-127.382,171.3068v-20.1882l-143.4878,197.3517,149.3218-21.9591c.015-.0022.0298-.0059.0441-.0111l101.0056-36.5962,2.9283,78.3326h24.1587l21.2303,153.0048v50.5136"/><polyline class="d" points="398.557 451.699 359.2492 430.2798 381.9437 731.1649 430.261 721.6478 430.261 962.5023 307.5069 978.6081 415.9321 859.2355"/><path class="d" d="m402.442,441.261l-121.1308,325.4478c-.0861.2314-.4279.1765-.4372-.0702l-5.814-154.0707"/><polyline class="d" points="409.0307 809.4975 384.872 809.4975 395.3231 728.5295 409.0307 809.4975"/><polyline class="d" points="384.872 444.2419 430.261 471.2763 395.3231 728.5295 423.3631 723.0065 402.442 441.261 449.359 356.5749"/><line class="d" x1="458.5082" y1="441.261" x2="411.5912" y2="356.5749"/><path class="d" d="m430.261,171.1233l27.8191,270.1377,127.382,171.3068v-20.1882s143.4878,197.3517,143.4878,197.3517l-149.3218-21.9591c-.015-.0022-.0298-.0059-.0441-.0111l-101.0056-36.5962-2.9283,78.3326h-24.1587s-21.2303,153.0048-21.2303,153.0048v50.5136"/><polyline class="d" points="461.9651 451.699 501.2728 430.2798 478.5783 731.1649 430.261 721.6478 430.261 962.5023 553.0152 978.6081 444.5899 859.2355"/><path class="d" d="m458.0801,441.261l121.1308,325.4478c.0861.2314.4279.1765.4372-.0702l5.814-154.0707"/><polyline class="d" points="451.4914 809.4975 475.65 809.4975 465.199 728.5295 451.4914 809.4975"/><polyline class="d" points="458.0801 441.261 437.1589 723.0065 465.199 728.5295 430.261 471.2763 475.65 444.2419"/><polygon class="e" points="430.2611 3.9742 856.5479 800.8414 430.2611 1235.2171 3.9742 800.8414 430.2611 3.9742"/></g></svg>