<?xml version="1.0" encoding="UTF-8" standalone="no"?>
<svg
   id="b"
   width="860.5221"
   height="1239.1913"
   viewBox="0 0 860.5221 1239.1913"
   version="1.1"
   sodipodi:docname="favicon.svg"
   inkscape:version="1.4 (86a8ad7, 2024-10-11)"
   xmlns:inkscape="http://www.inkscape.org/namespaces/inkscape"
   xmlns:sodipodi="http://sodipodi.sourceforge.net/DTD/sodipodi-0.dtd"
   xmlns="http://www.w3.org/2000/svg"
   xmlns:svg="http://www.w3.org/2000/svg">
  <sodipodi:namedview
     id="namedview6"
     pagecolor="#505050"
     bordercolor="#eeeeee"
     borderopacity="1"
     inkscape:showpageshadow="0"
     inkscape:pageopacity="0"
     inkscape:pagecheckerboard="0"
     inkscape:deskcolor="#505050"
     inkscape:zoom="1.4856463"
     inkscape:cx="430.11582"
     inkscape:cy="619.59564"
     inkscape:window-width="3840"
     inkscape:window-height="2080"
     inkscape:window-x="-11"
     inkscape:window-y="-11"
     inkscape:window-maximized="1"
     inkscape:current-layer="c" />
  <defs
     id="defs1">
    <style
       id="style1">.d{stroke-width:7.8191px;}.d,.e{fill:none;stroke:#fff;stroke-linecap:round;stroke-linejoin:round;}.e{stroke-width:7.9484px;}</style>
  </defs>
  <g
     id="c">
    <polygon
       class="e"
       points="430.2611 3.9742 856.5479 800.8414 430.2611 1235.2171 3.9742 800.8414 430.2611 3.9742"
       id="polygon6"
       style="fill:#000000;fill-opacity:0.27247706" />
    <path
       class="d"
       d="m430.261,171.1233l-27.8191,270.1377-127.382,171.3068v-20.1882l-143.4878,197.3517,149.3218-21.9591c.015-.0022.0298-.0059.0441-.0111l101.0056-36.5962,2.9283,78.3326h24.1587l21.2303,153.0048v50.5136"
       id="path1" />
    <polyline
       class="d"
       points="398.557 451.699 359.2492 430.2798 381.9437 731.1649 430.261 721.6478 430.261 962.5023 307.5069 978.6081 415.9321 859.2355"
       id="polyline1" />
    <path
       class="d"
       d="m402.442,441.261l-121.1308,325.4478c-.0861.2314-.4279.1765-.4372-.0702l-5.814-154.0707"
       id="path2" />
    <polyline
       class="d"
       points="409.0307 809.4975 384.872 809.4975 395.3231 728.5295 409.0307 809.4975"
       id="polyline2" />
    <polyline
       class="d"
       points="384.872 444.2419 430.261 471.2763 395.3231 728.5295 423.3631 723.0065 402.442 441.261 449.359 356.5749"
       id="polyline3" />
    <line
       class="d"
       x1="458.5082"
       y1="441.261"
       x2="411.5912"
       y2="356.5749"
       id="line3" />
    <path
       class="d"
       d="m430.261,171.1233l27.8191,270.1377,127.382,171.3068v-20.1882s143.4878,197.3517,143.4878,197.3517l-149.3218-21.9591c-.015-.0022-.0298-.0059-.0441-.0111l-101.0056-36.5962-2.9283,78.3326h-24.1587s-21.2303,153.0048-21.2303,153.0048v50.5136"
       id="path3" />
    <polyline
       class="d"
       points="461.9651 451.699 501.2728 430.2798 478.5783 731.1649 430.261 721.6478 430.261 962.5023 553.0152 978.6081 444.5899 859.2355"
       id="polyline4" />
    <path
       class="d"
       d="m458.0801,441.261l121.1308,325.4478c.0861.2314.4279.1765.4372-.0702l5.814-154.0707"
       id="path4" />
    <polyline
       class="d"
       points="451.4914 809.4975 475.65 809.4975 465.199 728.5295 451.4914 809.4975"
       id="polyline5" />
    <polyline
       class="d"
       points="458.0801 441.261 437.1589 723.0065 465.199 728.5295 430.261 471.2763 475.65 444.2419"
       id="polyline6" />
  </g>
</svg>
